<?xml version="1.0" encoding="UTF-8"?>
<svg version="1.1" xmlns="http://www.w3.org/2000/svg" width="700" height="400">
<path d="M0 0 C231 0 462 0 700 0 C700 132 700 264 700 400 C469 400 238 400 0 400 C0 268 0 136 0 0 Z " fill="#CBCBCB" transform="translate(0,0)"/>
<path d="M0 0 C5.87019582 3.54426917 8.81957364 8.62776287 10.59375 15.19921875 C11.15652207 19.07909926 11.1842666 22.89685087 11.1875 26.8125 C11.19974609 27.58142578 11.21199219 28.35035156 11.22460938 29.14257812 C11.24830219 38.50124079 9.17653814 46.34614322 2.8125 53.4375 C-1.19822892 55.66568273 -4.52124125 56.01232218 -9 55 C-13.9437439 52.22389766 -17.04824308 48.31311607 -19 43 C-21.01510766 31.73826358 -22.78715916 15.87953346 -16 6 C-11.67168956 0.48308617 -6.96427219 -1.66481689 0 0 Z " fill="#979797" transform="translate(479,174)"/>
<path d="M0 0 C5.87019582 3.54426917 8.81957364 8.62776287 10.59375 15.19921875 C11.15652207 19.07909926 11.1842666 22.89685087 11.1875 26.8125 C11.19974609 27.58142578 11.21199219 28.35035156 11.22460938 29.14257812 C11.24830219 38.50124079 9.17653814 46.34614322 2.8125 53.4375 C-1.19822892 55.66568273 -4.52124125 56.01232218 -9 55 C-13.9437439 52.22389766 -17.04824308 48.31311607 -19 43 C-21.01510766 31.73826358 -22.78715916 15.87953346 -16 6 C-11.67168956 0.48308617 -6.96427219 -1.66481689 0 0 Z " fill="#979797" transform="translate(440,174)"/>
<path d="M0 0 C5.87019582 3.54426917 8.81957364 8.62776287 10.59375 15.19921875 C11.15652207 19.07909926 11.1842666 22.89685087 11.1875 26.8125 C11.19974609 27.58142578 11.21199219 28.35035156 11.22460938 29.14257812 C11.24830219 38.50124079 9.17653814 46.34614322 2.8125 53.4375 C-1.19822892 55.66568273 -4.52124125 56.01232218 -9 55 C-13.9437439 52.22389766 -17.04824308 48.31311607 -19 43 C-21.01510766 31.73826358 -22.78715916 15.87953346 -16 6 C-11.67168956 0.48308617 -6.96427219 -1.66481689 0 0 Z " fill="#979797" transform="translate(294,174)"/>
<path d="M0 0 C5.87019582 3.54426917 8.81957364 8.62776287 10.59375 15.19921875 C11.15652207 19.07909926 11.1842666 22.89685087 11.1875 26.8125 C11.19974609 27.58142578 11.21199219 28.35035156 11.22460938 29.14257812 C11.24830219 38.50124079 9.17653814 46.34614322 2.8125 53.4375 C-1.19822892 55.66568273 -4.52124125 56.01232218 -9 55 C-13.9437439 52.22389766 -17.04824308 48.31311607 -19 43 C-21.01510766 31.73826358 -22.78715916 15.87953346 -16 6 C-11.67168956 0.48308617 -6.96427219 -1.66481689 0 0 Z " fill="#979797" transform="translate(255,174)"/>
<path d="M0 0 C4.75 1.875 4.75 1.875 7 3 C6.40742784 6.9999749 5.1456761 9.88681233 3.12890625 13.37890625 C2.55462891 14.38244141 1.98035156 15.38597656 1.38867188 16.41992188 C0.78603516 17.45697266 0.18339844 18.49402344 -0.4375 19.5625 C-1.62442494 21.62588405 -2.81065138 23.68967009 -3.99609375 25.75390625 C-4.52388428 26.66470947 -5.0516748 27.5755127 -5.59545898 28.51391602 C-6.79653705 30.63986386 -7.90800707 32.81601414 -9 35 C-5.7 35 -2.4 35 1 35 C0.979375 33.80375 0.95875 32.6075 0.9375 31.375 C0.93117429 27.81995131 1.30111125 24.49444376 2 21 C4.31 21 6.62 21 9 21 C9 25.62 9 30.24 9 35 C9.99 35 10.98 35 12 35 C12 37.31 12 39.62 12 42 C11.01 42 10.02 42 9 42 C9 46.29 9 50.58 9 55 C6.03 55 3.06 55 0 55 C0 50.71 0 46.42 0 42 C-6.27 42 -12.54 42 -19 42 C-19 33.00174992 -19 33.00174992 -16.3671875 28.57421875 C-15.80773437 27.61193359 -15.24828125 26.64964844 -14.671875 25.65820312 C-14.07890625 24.67787109 -13.4859375 23.69753906 -12.875 22.6875 C-11.72576555 20.73354143 -10.57732535 18.77911549 -9.4296875 16.82421875 C-8.8634668 15.8707959 -8.29724609 14.91737305 -7.71386719 13.93505859 C-5.0355028 9.3482642 -2.51138648 4.67979063 0 0 Z " fill="#969696" transform="translate(399,174)"/>
<path d="M0 0 C3.63 0 7.26 0 11 0 C11.99 2.97 12.98 5.94 14 9 C15.99097846 6.01353231 16.94124926 3.40312738 18 0 C21.63 0 25.26 0 29 0 C29 2.31 29 4.62 29 7 C28.39929688 7.07863281 27.79859375 7.15726563 27.1796875 7.23828125 C23.53795283 8.51093046 22.54680316 11.36595723 20.85546875 14.66015625 C19.76184308 17.08272522 19.76184308 17.08272522 20.4375 20.125 C20.953125 21.07375 21.46875 22.0225 22 23 C22.42925781 23.93392578 22.42925781 23.93392578 22.8671875 24.88671875 C23.89410152 27.09609042 23.89410152 27.09609042 26 30 C28.62102997 31.04510361 28.62102997 31.04510361 31 31 C31 33.31 31 35.62 31 38 C27.37 38 23.74 38 20 38 C17.525 32.06 17.525 32.06 15 26 C13.28982274 28.5652659 12.09582189 30.87960965 10.875 33.6875 C9.946875 35.8221875 9.946875 35.8221875 9 38 C5.7 38 2.4 38 -1 38 C-1 35.69 -1 33.38 -1 31 C-0.40960938 30.94199219 0.18078125 30.88398438 0.7890625 30.82421875 C4.81737163 29.32249927 6.04973798 25.44581875 7.92578125 21.79296875 C9.26772999 18.96519999 9.26772999 18.96519999 8.5625 15.625 C7.7890625 14.325625 7.7890625 14.325625 7 13 C6.54625 12.071875 6.0925 11.14375 5.625 10.1875 C4.19382953 7.84593333 4.19382953 7.84593333 1.8125 7.1875 C1.214375 7.125625 0.61625 7.06375 0 7 C0 4.69 0 2.38 0 0 Z " fill="#979797" transform="translate(328,191)"/>
<path d="M0 0 C9.57 0 19.14 0 29 0 C29 5.85751956 28.09072486 8.27130337 25.375 13.0625 C18.72314923 25.56014151 14.42363113 39.80835715 14 54 C11.03 54 8.06 54 5 54 C4.79201848 47.49407795 5.38472535 41.85773611 7 35.5625 C7.21422607 34.71010742 7.42845215 33.85771484 7.64916992 32.97949219 C10.08046458 23.86612913 13.88278764 15.45918568 18 7 C14.37 7 10.74 7 7 7 C7 8.98 7 10.96 7 13 C4.69 13 2.38 13 0 13 C0 8.71 0 4.42 0 0 Z " fill="#979797" transform="translate(200,175)"/>
<path d="M0 0 C2.93453261 0.36681658 3.86437246 0.86437246 6 3 C8.49146185 8.51114882 8.33234446 13.94547656 8.3125 19.875 C8.32861328 20.83019531 8.34472656 21.78539062 8.36132812 22.76953125 C8.36552273 28.88526188 7.60056347 33.44453838 5 39 C3 41 3 41 0.5625 41.0625 C-2 40 -2 40 -3.63671875 37.18359375 C-5.71497821 31.94750292 -5.43609538 26.55289129 -5.375 21 C-5.38660156 19.94554687 -5.39820313 18.89109375 -5.41015625 17.8046875 C-5.3842997 10.92684523 -5.10525974 5.10525974 0 0 Z " fill="#CACACA" transform="translate(473,181)"/>
<path d="M0 0 C2.93453261 0.36681658 3.86437246 0.86437246 6 3 C8.49146185 8.51114882 8.33234446 13.94547656 8.3125 19.875 C8.32861328 20.83019531 8.34472656 21.78539062 8.36132812 22.76953125 C8.36552273 28.88526188 7.60056347 33.44453838 5 39 C3 41 3 41 0.5625 41.0625 C-2 40 -2 40 -3.63671875 37.18359375 C-5.71497821 31.94750292 -5.43609538 26.55289129 -5.375 21 C-5.38660156 19.94554687 -5.39820313 18.89109375 -5.41015625 17.8046875 C-5.3842997 10.92684523 -5.10525974 5.10525974 0 0 Z " fill="#CACACA" transform="translate(434,181)"/>
<path d="M0 0 C2.93453261 0.36681658 3.86437246 0.86437246 6 3 C8.49146185 8.51114882 8.33234446 13.94547656 8.3125 19.875 C8.32861328 20.83019531 8.34472656 21.78539062 8.36132812 22.76953125 C8.36552273 28.88526188 7.60056347 33.44453838 5 39 C3 41 3 41 0.5625 41.0625 C-2 40 -2 40 -3.63671875 37.18359375 C-5.71497821 31.94750292 -5.43609538 26.55289129 -5.375 21 C-5.38660156 19.94554687 -5.39820313 18.89109375 -5.41015625 17.8046875 C-5.3842997 10.92684523 -5.10525974 5.10525974 0 0 Z " fill="#CACACA" transform="translate(288,181)"/>
<path d="M0 0 C2.93453261 0.36681658 3.86437246 0.86437246 6 3 C8.49146185 8.51114882 8.33234446 13.94547656 8.3125 19.875 C8.32861328 20.83019531 8.34472656 21.78539062 8.36132812 22.76953125 C8.36552273 28.88526188 7.60056347 33.44453838 5 39 C3 41 3 41 0.5625 41.0625 C-2 40 -2 40 -3.63671875 37.18359375 C-5.71497821 31.94750292 -5.43609538 26.55289129 -5.375 21 C-5.38660156 19.94554687 -5.39820313 18.89109375 -5.41015625 17.8046875 C-5.3842997 10.92684523 -5.10525974 5.10525974 0 0 Z " fill="#CACACA" transform="translate(249,181)"/>
</svg>
